Description:
Plot
Fourteen year old go racecar enthusiast Marc Benton (Randy Shelly) attempts to raise enough money to buy his own go cart and compete in a local go cart race. Though at first it looks like Marc's dream is a long shot, his goal comes into reach when he befriends kindly track manager Buddy (Priscilla Barnes) and lands a job repairing race-damaged go carts. Over time, with a little help from Buddy, Marc learns that being a true champion takes much more than fast reflexes alone.
 
http://www.starshare.ro/bitbucket/vlcsnap2010-09-11-06h47m40s218.jpg
 
http://www.starshare.ro/bitbucket/vlcsnap2010-09-11-06h47m44s17.jpg
 
http://www.starshare.ro/bitbucket/vlcsnap2010-09-11-06h47m48s59.jpg

Genre:Comedy
Language: English 
http://www.imdb.com/title/tt1715823/
SourceVD

General
Complete name :Kid Racer 2010 DvDRip XviD Ac3 Feel-Free
Format : AVI
Format/Info : Audio Video Interleave
File size : 1.03 GiB
Duration : 1h 20mn
Overall bit rate : 1 848 Kbps
Video #0
Codec ID : XVID
Codec ID/Hint : XviD
Duration : 1h 20mn
Bit rate : 1 517 Kbps
Width : 640 pixels
Height : 352 pixels
Display aspect ratio : 16:9
Frame rate : 29.970 fps
Resolution : 24 bits
Colorimetry : 4:2:0
Scan type : Progressive
Bits/(Pixel*Frame) : 0.225
Stream size : 869 MiB (82%)
Writing library : XviD 1.2.1 (UTC 2008-12-04)
Audio #1
ID : 1
Format : AC-3
Format/Info : Audio Coding 3
Codec ID : 2000
Duration : 1h 20mn
Bit rate mode : Constant
Bit rate : 320 Kbps
Channel(s) : 6 channels
Channel positions : Front: L C R, Surround: L R, LFE
Sampling rate : 48.0 KHz
Stream size : 183 MiB (17%)
Alignment : Split accross interleaves
Interleave, duration : 33 ms (1.00 video frame)
Interleave, preload duration : 500 ms